<?xml version="1.0" standalone="no"?>
<!DOCTYPE svg PUBLIC "-//W3C//DTD SVG 20010904//EN"
 "http://www.w3.org/TR/2001/REC-SVG-20010904/DTD/svg10.dtd">
<svg version="1.0" xmlns="http://www.w3.org/2000/svg"
 width="100.000000pt" height="100.000000pt" viewBox="0 0 100.000000 100.000000"
 preserveAspectRatio="xMidYMid meet">

<g transform="translate(0.000000,100.000000) scale(0.100000,-0.100000)"
fill="#000000" stroke="none">
<path d="M267 543 c-64 -153 -123 -295 -132 -315 l-15 -38 64 0 64 0 33 80 33
81 115 -3 114 -3 32 -75 32 -75 61 -3 c34 -2 62 1 62 5 0 4 -58 145 -128 313
l-128 305 -46 3 -45 3 -116 -278z m192 19 c17 -46 31 -88 31 -93 0 -5 -30 -9
-66 -9 -49 0 -65 3 -62 13 3 6 18 49 34 94 15 45 29 81 31 80 1 -1 16 -40 32
-85z"/>
</g>
</svg>
