<?xml version="1.0" standalone="no"?>
<!DOCTYPE svg PUBLIC "-//W3C//DTD SVG 20010904//EN"
 "http://www.w3.org/TR/2001/REC-SVG-20010904/DTD/svg10.dtd">
<svg version="1.0" xmlns="http://www.w3.org/2000/svg"
 width="399.000000pt" height="65.000000pt" viewBox="0 0 399.000000 65.000000"
 preserveAspectRatio="xMidYMid meet">

<g transform="translate(0.000000,65.000000) scale(0.100000,-0.100000)"
fill="#000000" stroke="none">
<path d="M252 603 c-32 -75 -223 -535 -233 -560 -8 -22 -7 -23 55 -23 l64 0
33 80 33 81 115 -3 115 -3 32 -75 31 -75 61 -3 c34 -2 62 1 62 5 0 5 -58 145
-128 313 l-129 305 -45 3 -45 3 -21 -48z m97 -209 c17 -47 31 -89 31 -95 0 -5
-30 -9 -66 -9 -49 0 -65 3 -62 13 3 6 18 49 34 95 16 45 29 82 30 82 1 0 16
-38 33 -86z"/>
<path d="M3090 570 l0 -80 -30 0 c-29 0 -30 -1 -30 -50 0 -49 1 -50 30 -50
l30 0 0 -185 0 -185 55 0 55 0 0 185 0 185 35 0 35 0 0 50 0 50 -35 0 -35 0 0
80 0 80 -55 0 -55 0 0 -80z"/>
<path d="M797 486 c-96 -36 -157 -124 -157 -228 0 -69 16 -111 60 -162 52 -59
102 -80 190 -81 64 0 82 4 121 27 27 16 60 48 78 75 l32 48 -61 3 c-53 3 -65
0 -90 -22 -38 -32 -64 -39 -105 -32 -94 18 -142 124 -95 215 37 74 141 93 200
36 24 -23 34 -26 89 -23 l62 3 -30 47 c-41 65 -104 100 -189 105 -42 2 -81 -2
-105 -11z"/>
<path d="M1341 486 c-48 -17 -108 -71 -133 -119 -34 -65 -32 -167 5 -230 91
-154 307 -169 414 -29 18 24 33 48 33 53 0 5 -28 9 -63 9 -54 0 -67 -4 -87
-24 -63 -68 -183 -28 -209 70 -30 112 62 207 169 175 22 -6 44 -21 50 -31 9
-17 21 -20 75 -20 36 0 65 2 65 5 0 40 -89 126 -149 143 -49 15 -126 14 -170
-2z"/>
<path d="M2386 475 c-24 -22 -26 -23 -26 -5 0 17 -7 20 -50 20 l-50 0 0 -235
0 -235 55 0 55 0 0 150 c0 185 13 220 81 220 16 0 19 7 19 55 0 54 -1 55 -29
55 -16 0 -39 -10 -55 -25z"/>
<path d="M2623 476 c-168 -80 -179 -332 -19 -431 43 -26 59 -30 121 -30 63 0
77 4 111 28 l39 27 3 -25 c3 -23 7 -25 58 -25 l54 0 0 235 0 235 -55 0 c-52 0
-55 -1 -55 -26 l0 -25 -36 28 c-53 40 -148 44 -221 9z m196 -103 c60 -44 78
-135 38 -194 -85 -129 -278 -52 -252 101 17 101 133 152 214 93z"/>
<path d="M3459 486 c-98 -35 -159 -124 -159 -231 0 -95 47 -171 135 -218 57
-31 173 -30 232 0 42 23 103 88 103 110 0 22 -107 17 -137 -7 -55 -43 -141
-34 -188 21 -14 17 -25 35 -25 40 0 4 82 10 183 11 l182 3 3 28 c2 15 -4 53
-13 85 -39 133 -183 206 -316 158z m183 -123 c15 -15 28 -35 28 -45 0 -16 -11
-18 -125 -18 -134 0 -141 3 -109 49 41 57 152 65 206 14z"/>
<path d="M1752 308 c2 -151 6 -189 20 -215 43 -78 153 -105 241 -60 44 23 47
23 47 6 0 -16 8 -19 50 -19 l50 0 0 235 0 235 -54 0 -55 0 -3 -160 c-3 -156
-4 -160 -29 -185 -38 -38 -88 -43 -125 -12 l-29 25 -3 166 -3 166 -55 0 -56 0
4 -182z"/>
</g>
</svg>
